<?xml version="1.0" standalone="no"?>
<!DOCTYPE svg PUBLIC "-//W3C//DTD SVG 1.1//EN" "http://www.w3.org/Graphics/SVG/1.1/DTD/svg11.dtd" >
<svg xmlns="http://www.w3.org/2000/svg">
<metadata></metadata>
<defs>
<font id="filter_cfthin" horiz-adv-x="1748" >
<font-face units-per-em="2048" ascent="1638" descent="-410" />
<missing-glyph horiz-adv-x="921" />
<glyph horiz-adv-x="0" />
<glyph horiz-adv-x="682" />
<glyph unicode=" "  horiz-adv-x="921" />
<glyph unicode="&#x09;" horiz-adv-x="921" />
<glyph unicode="&#xa0;" horiz-adv-x="921" />
<glyph unicode="!" horiz-adv-x="378" d="M164 0v53h51v-53h-51zM164 295v1139h51v-1139h-51z" />
<glyph unicode="&#x22;" horiz-adv-x="647" d="M164 1024v410h51v-410h-51zM432 1024v410h51v-410h-51z" />
<glyph unicode="#" horiz-adv-x="1320" d="M164 436v51h278v486h-278v51h278v410h52v-410h333v410h52v-410h278v-51h-278v-486h278v-51h-278v-436h-52v436h-333v-436h-52v436h-278zM494 487h333v486h-333v-486z" />
<glyph unicode="$" horiz-adv-x="1355" d="M143 252h64q43 -101 165 -166.5t269 -65.5h12v666l-24 8q-87 28 -147.5 52t-122.5 59t-99 73.5t-60.5 92.5t-23.5 119q0 169 134.5 270.5t330.5 101.5h12v94h52v-96q157 -16 270.5 -99t148.5 -226h-55q-33 118 -131.5 188t-232.5 82v-680q60 -20 102 -35.5t93 -38.5 t84.5 -44.5t68 -51.5t55 -62.5t33 -75t12.5 -91.5q0 -102 -61 -182t-161.5 -124t-225.5 -53v-90h-52v88h-12q-172 0 -311.5 80.5t-186.5 206.5zM227 1090q0 -53 20 -97t53.5 -78t90.5 -65.5t116.5 -55.5t145.5 -53v668h-12q-189 0 -301.5 -90.5t-112.5 -228.5zM705 23 q170 14 283.5 96t113.5 207q0 66 -26.5 117t-83 91.5t-122 70.5t-165.5 65v-647z" />
<glyph unicode="&#x26;" horiz-adv-x="1773" d="M164 453q0 194 137.5 332.5t331.5 138.5h10l-418 436v74h860v-52h-811l553 -571q-108 57 -194 57q-170 0 -292 -123t-122 -294q0 -170 122 -293t292 -123t294 123t124 293q0 95 -43 178.5t-117 144.5l-6 6h725v-51h-244v-729h-51v729h-299q88 -125 88 -276 q0 -196 -138 -334.5t-333 -138.5q-128 0 -236 63t-170.5 172t-62.5 238z" />
<glyph unicode="'" horiz-adv-x="378" d="M164 1024v410h51v-410h-51z" />
<glyph unicode="(" horiz-adv-x="591" d="M164 733q0 265 52 497.5t146 407.5h66q-99 -165 -155 -399t-56 -506q0 -270 54.5 -506.5t150.5 -402.5h-64q-92 174 -143 409.5t-51 499.5z" />
<glyph unicode=")" horiz-adv-x="591" d="M164 1638h65q94 -176 146.5 -408t52.5 -497q0 -263 -51.5 -499t-143.5 -410h-63q96 166 150.5 402.5t54.5 506.5q0 272 -56 506t-155 399z" />
<glyph unicode="*" horiz-adv-x="737" d="M164 1204v51h143l-100 101l35 37l100 -101v142h51v-144l103 103l36 -37l-100 -101h141v-51h-143l102 -102l-36 -35l-103 102v-145h-51v143l-100 -100l-37 37l100 100h-141z" />
<glyph unicode="+" horiz-adv-x="1091" d="M166 522v51h354v355h51v-355h357v-51h-357v-356h-51v356h-354z" />
<glyph unicode="," horiz-adv-x="491" d="M123 0v51h225l-153 -524h-56l140 473h-156z" />
<glyph unicode="-" horiz-adv-x="1089" d="M164 522v51h762v-51h-762z" />
<glyph unicode="." horiz-adv-x="378" d="M164 0v53h51v-53h-51z" />
<glyph unicode="/" horiz-adv-x="958" d="M61 0l777 1434h59l-778 -1434h-58z" />
<glyph unicode="0" d="M143 717q0 148 58 283.5t156 233.5t233.5 156t283.5 58t283.5 -58t234 -156t156.5 -233.5t58 -283.5t-58 -283.5t-156.5 -233.5t-234 -156t-283.5 -58t-283.5 58t-233.5 156t-156 233.5t-58 283.5zM195 719q0 -111 34.5 -214.5t97.5 -187.5t146.5 -147.5t188 -98 t215.5 -34.5q138 0 263.5 54t216 145.5t144 218t53.5 264.5t-53.5 263.5t-144 216.5t-216 144.5t-263.5 53.5q-139 0 -265 -53.5t-217.5 -144.5t-145.5 -216.5t-54 -263.5zM563 1102l64 -2l559 -766h-62z" />
<glyph unicode="1" horiz-adv-x="483" d="M82 1231l227 203h51v-1434h-51v1366l-194 -174z" />
<glyph unicode="2" horiz-adv-x="1306" d="M164 967q0 88 33.5 171t94 149t154.5 106.5t207 40.5q112 0 200.5 -37t141.5 -99t80 -136t27 -154q0 -35 -6 -67.5t-24 -68.5t-34 -64t-51.5 -70t-60 -69.5t-77.5 -79t-85 -82t-100 -93.5l-388 -363h867v-51h-938v51l467 441q54 51 75 71t65.5 63t62 62t50.5 55t46 56 t33 51t27 54t13.5 50t6.5 54q0 93 -40.5 174t-115.5 133l-653 -608q-41 55 -59.5 115.5t-18.5 144.5zM215 967q0 -113 37 -183l598 557q-77 41 -186 41h-21q-183 0 -305.5 -123.5t-122.5 -291.5z" />
<glyph unicode="3" horiz-adv-x="1318" d="M164 322l848 1060h-774v52h878l-346 -435q149 -44 259.5 -167t123.5 -291q8 -100 -16 -185t-90 -168q-145 -179 -367 -196q-110 -7 -210 30t-177 109q-91 88 -129 191zM225 311q4 -9 15 -28q74 -112 145 -162q137 -92 289 -80q125 9 226.5 80t160.5 182q53 100 43 232 q-5 59 -29 121.5t-66.5 122.5t-112.5 108t-157 69z" />
<glyph unicode="4" horiz-adv-x="1396" d="M154 322l886 1112h66l-842 -1061h367l432 542v-542h170v-51h-170v-322h-51v322h-858zM700 373h312v395z" />
<glyph unicode="5" horiz-adv-x="1331" d="M164 322l47 24q21 -66 62 -120t114 -107q128 -92 293 -80q127 10 229 81t164 183q53 95 43 234q-5 71 -36 144.5t-97 145t-156 111.5q-103 44 -211 41l-397 -500h-51v955h956l-26 -52h-162l-281 -352q100 -8 191 -47q129 -57 218.5 -173t100.5 -267q8 -102 -16 -187.5 t-90 -169.5q-143 -181 -373 -198q-228 -17 -405 151q-79 76 -117 183zM219 567l651 815h-651v-815z" />
<glyph unicode="6" horiz-adv-x="1355" d="M164 467l772 967h65l-321 -404q113 -9 190 -47q129 -57 219 -173t101 -267q8 -101 -16 -186.5t-91 -170.5q-143 -181 -372 -198t-406 151q-134 132 -141 328zM219 451q4 -90 37 -158q45 -95 156 -174q128 -92 293 -80q127 10 229 81t164 183q53 95 43 234 q-5 71 -36 144.5t-97 145t-156 111.5q-103 44 -211 41z" />
<glyph unicode="7" horiz-adv-x="1472" d="M154 1382v52h1165l-1059 -1434h-67l1024 1382h-1063z" />
<glyph unicode="8" horiz-adv-x="1277" d="M154 465q0 106 46.5 200t127.5 160q-80 103 -80 232q0 158 114.5 268.5t276.5 110.5q163 0 277 -110.5t114 -268.5q0 -128 -80 -232q81 -66 127.5 -160t46.5 -200q0 -199 -141 -337t-344 -138q-131 0 -242.5 62.5t-177 172t-65.5 240.5zM207 465q0 -176 126.5 -299 t305.5 -123q180 0 306 122.5t126 299.5q0 95 -42 179t-114 142q-114 -108 -276 -108q-163 0 -274 108q-73 -58 -115.5 -142t-42.5 -179zM301 1057q0 -111 70 -201q122 80 268 80q148 0 270 -80q68 87 68 201q0 137 -98 232t-240 95q-139 0 -238.5 -95.5t-99.5 -231.5z M408 817q100 -90 231 -90q135 0 235 90q-108 68 -235 68q-123 0 -231 -68z" />
<glyph unicode="9" horiz-adv-x="1355" d="M166 891q-8 101 16 186.5t90 169.5q144 182 373 199q228 17 406 -152q134 -132 141 -327l-772 -967h-66l322 403q-111 9 -191 48q-129 57 -218.5 173t-100.5 267zM215 897q5 -71 36 -144.5t97 -145t156 -111.5q103 -44 211 -41l422 528q-4 90 -37 158q-45 95 -156 174 q-128 92 -293 80q-127 -10 -229 -81.5t-164 -183.5q-53 -95 -43 -233z" />
<glyph unicode=":" horiz-adv-x="378" d="M164 0v51h51v-51h-51zM164 973v51h51v-51h-51z" />
<glyph unicode=";" horiz-adv-x="552" d="M164 0v51h225l-153 -524h-56l139 473h-155zM242 973v51h51v-51h-51z" />
<glyph unicode="?" horiz-adv-x="1132" d="M143 1434h357q112 0 206.5 -41t155 -107.5t94 -149.5t33.5 -169q0 -88 -30 -169t-87 -146t-148 -103.5t-204 -38.5h-239v-334h-52v385h301q139 0 246 76zM229 0v51h52v-51h-52zM248 1382l567 -712q123 120 123 297q0 107 -54.5 202t-154 154t-219.5 59h-262z" />
<glyph unicode="A" horiz-adv-x="1742" d="M82 0l790 1434l789 -1434h-1579zM172 51h1401l-701 1276z" />
<glyph unicode="B" horiz-adv-x="1472" d="M164 0v1434h663q99 0 174 -27.5t118 -73.5t65 -97t26 -108q1 -11 1 -22q0 -150 -142 -291l-78 -76q136 -33 227 -135.5t91 -230.5q0 -75 -26 -141t-77 -118.5t-136 -83t-193 -30.5h-713zM217 53l821 805q122 122 122 247q0 11 -1 23q-10 107 -94 180.5t-236 73.5h-612 v-1329zM289 51h588q183 0 281.5 88.5t98.5 233.5q0 127 -84.5 211.5t-222.5 113.5z" />
<glyph unicode="C" horiz-adv-x="1558" d="M143 717q0 106 32 211t96 198.5t150.5 165.5t204 114t248.5 42q158 0 298.5 -63.5t242.5 -176.5l-37 -32q-94 103 -224.5 162t-276.5 59q-140 0 -267 -54.5t-217.5 -146.5t-144 -217.5t-53.5 -261.5t53.5 -261.5t144 -217.5t217.5 -146.5t267 -54.5q146 0 276.5 59 t224.5 162l37 -33q-102 -112 -242.5 -175.5t-298.5 -63.5q-131 0 -248.5 42t-204 114t-150.5 165.5t-96 198.5t-32 211z" />
<glyph unicode="D" horiz-adv-x="1622" d="M164 0v1434h524q156 0 285 -40.5t217.5 -110t150 -162.5t89.5 -195.5t28 -212.5q0 -127 -32.5 -237t-90 -191t-127 -140t-151.5 -96l-37 49q168 74 276.5 234t108.5 381q0 134 -47.5 254.5t-134 213t-220 147t-294.5 54.5h-492v-540l690 -842h-743zM217 51h578l-578 703 v-703z" />
<glyph unicode="E" horiz-adv-x="1452" d="M164 0v1434h1124v-52h-1018l670 -872h-725v-459h1073v-51h-1124zM215 561h621l-621 807v-807z" />
<glyph unicode="F" horiz-adv-x="1421" d="M154 0v1434h1124v-52h-1018l670 -872h-725v-510h-51zM205 561h620l-620 807v-807z" />
<glyph unicode="G" horiz-adv-x="1708" d="M143 717q0 106 32 211t96 198.5t150.5 165.5t204 114t248.5 42q158 0 298.5 -63.5t242.5 -176.5l-37 -32q-94 103 -224.5 162t-276.5 59q-140 0 -267 -54.5t-217.5 -146.5t-144 -217.5t-53.5 -261.5q0 -180 88 -335t242 -248t339 -97q185 3 330 94l-465 637h836v-51 q0 -196 -89.5 -361.5t-248.5 -264.5t-353 -105h-18q-128 3 -242.5 46.5t-199 115.5t-146.5 164.5t-93.5 196t-31.5 208.5zM827 717l408 -559q129 93 203 240t75 319h-686z" />
<glyph unicode="H" horiz-adv-x="1595" d="M164 0v268h51v-268h-51zM164 510v924h51v-873h1217v-561h-52v510h-1216zM1380 805v629h52v-629h-52z" />
<glyph unicode="I" horiz-adv-x="378" d="M164 0v1434h51v-1434h-51z" />
<glyph unicode="J" horiz-adv-x="1306" d="M164 481h51q0 -191 119 -314.5t319 -123.5q182 0 299 104l-434 555h574v732h51v-783h-522l368 -465q103 119 103 295h51q0 -221 -138.5 -355t-351.5 -134q-214 0 -351.5 134t-137.5 355z" />
<glyph unicode="K" horiz-adv-x="1599" d="M164 0v1434h51v-1346l1059 1294h-582v52h686l-608 -746l707 -688h-1313zM250 51h1104l-619 596z" />
<glyph unicode="L" horiz-adv-x="1443" d="M164 0v1434h51v-1383h1065v-51h-1116z" />
<glyph unicode="M" horiz-adv-x="2002" d="M205 0v1434l796 -605l797 605v-1434h-1593zM256 51h1491v1272l-746 -567l-745 567v-1272z" />
<glyph unicode="N" horiz-adv-x="1662" d="M184 0v1434h70l1173 -1375v1375h52v-1434h-1295zM236 51h1130l-1130 1323v-1323z" />
<glyph unicode="O" d="M143 717q0 148 58 283.5t156 233.5t233.5 156t283.5 58t283.5 -58t234 -156t156.5 -233.5t58 -283.5t-58 -283.5t-156.5 -233.5t-234 -156t-283.5 -58t-283.5 58t-233.5 156t-156 233.5t-58 283.5zM195 719q0 -111 34.5 -214.5t97.5 -187.5t146.5 -147.5t188 -98 t215.5 -34.5q138 0 263.5 54t216 145.5t144 218t53.5 264.5t-53.5 263.5t-144 216.5t-216 144.5t-263.5 53.5q-139 0 -265 -53.5t-217.5 -144.5t-145.5 -216.5t-54 -263.5z" />
<glyph unicode="P" horiz-adv-x="1490" d="M154 1434h684q112 0 206.5 -41t155 -107.5t94 -149.5t33.5 -169q0 -88 -30 -169t-87 -146t-148 -103.5t-204 -38.5h-567v-510h-51v561h606zM258 1382l651 -819q165 15 266 130t101 274q0 107 -54.5 202t-154 154t-219.5 59h-590z" />
<glyph unicode="Q" d="M143 717q0 148 58 283.5t156 233.5t233.5 156t283.5 58t283.5 -58t234 -156t156.5 -233.5t58 -283.5q0 -193 -93 -358t-251 -263l290 -397h-61l-272 373q-159 -86 -345 -86q-148 0 -283.5 58t-233.5 156t-156 233.5t-58 283.5zM195 719q0 -111 34.5 -214.5t97.5 -187.5 t146.5 -147.5t188 -98t215.5 -34.5q168 0 311 76l-258 354h577q47 118 47 252q0 138 -53.5 263.5t-144 216.5t-216 144.5t-263.5 53.5q-139 0 -265 -53.5t-217.5 -144.5t-145.5 -216.5t-54 -263.5zM1028 416l203 -279q169 105 252 279h-455z" />
<glyph unicode="R" horiz-adv-x="1601" d="M164 0v1434h704q111 0 204 -36t153 -96t93.5 -135.5t33.5 -156.5q0 -278 -324 -424l440 -586h-1304zM215 51h1153l-420 559q179 68 265.5 163t86.5 237q0 153 -121 262.5t-300 109.5h-664v-1331z" />
<glyph unicode="S" horiz-adv-x="1316" d="M154 252h63q43 -101 165 -166.5t269 -65.5q125 0 229 36.5t168 107.5t64 162q0 42 -12 78.5t-31 65t-54 55.5t-69.5 47t-89 43t-101 39.5t-116.5 39.5q-87 28 -147.5 52t-122.5 59t-99 73.5t-60.5 92.5t-23.5 119q0 169 134.5 270.5t330.5 101.5q177 0 310.5 -84.5 t173.5 -242.5h-56q-37 132 -154.5 203t-273.5 71q-189 0 -301 -90t-112 -229q0 -67 28.5 -118.5t89.5 -93t132.5 -72t181.5 -67.5q55 -18 87 -29t81 -29t78 -32t67.5 -35.5t61.5 -41.5t48 -47.5t38.5 -56.5t22.5 -65t9 -77q0 -111 -72 -194.5t-187 -125t-253 -41.5 q-172 0 -311 80.5t-186 206.5z" />
<glyph unicode="T" horiz-adv-x="1554" d="M143 1382v52h660v-1434h-51v1382h-609zM913 1382v52h498v-52h-498z" />
<glyph unicode="U" horiz-adv-x="1572" d="M164 666v768h1245v-768q0 -134 -41 -254.5t-117 -215t-196.5 -149.5t-268.5 -55q-119 0 -221 36t-175 99.5t-124.5 148.5t-76.5 184t-25 206zM215 662q0 -93 21 -181t66.5 -168t111.5 -139.5t161.5 -95t210.5 -35.5t211 35.5t161.5 95t111.5 139.5t67 168t21 181v720 h-1143v-720z" />
<glyph unicode="V" horiz-adv-x="1679" d="M61 1434h60l719 -1328l690 1276h-707l31 52h764l-778 -1434z" />
<glyph unicode="W" horiz-adv-x="2363" d="M61 1434h62l745 -1381l283 514l-469 867h936l-258 -473h-57l229 421h-762l719 -1329l727 1329h-371l31 52h426l-784 -1434h-60l-278 514l-283 -514h-57z" />
<glyph unicode="X" horiz-adv-x="1662" d="M164 0l631 729l-611 705h70l1245 -1434h-72l-598 690l-208 -244l393 -446h-850zM276 51h623l-313 357zM924 852l503 582h72l-541 -621z" />
<glyph unicode="Y" horiz-adv-x="1712" d="M133 1434h62l661 -977l627 925h-740l31 52h805l-696 -1033v-401h-52v393z" />
<glyph unicode="Z" horiz-adv-x="1796" d="M164 0l1227 1382h-1168v52h1288l-612 -686l733 -748h-1468zM281 51h1228l-645 656z" />
<glyph unicode="[" horiz-adv-x="532" d="M164 -174v1812h205v-51h-154v-1710h154v-51h-205z" />
<glyph unicode="\" horiz-adv-x="958" d="M61 1434h60l776 -1434h-57z" />
<glyph unicode="]" horiz-adv-x="532" d="M164 -123h153v1710h-153v51h205v-1812h-205v51z" />
<glyph unicode="^" horiz-adv-x="778" d="M164 1262l225 409l225 -409h-55l-170 309l-170 -309h-55z" />
<glyph unicode="_" horiz-adv-x="1468" d="M164 0v51h1141v-51h-1141z" />
<glyph unicode="`" horiz-adv-x="634" d="M162 1638h63l232 -376h-62z" />
<glyph unicode="a" horiz-adv-x="1742" d="M82 0l790 1434l789 -1434h-1579zM172 51h1401l-701 1276z" />
<glyph unicode="b" horiz-adv-x="1472" d="M164 0v1434h663q99 0 174 -27.5t118 -73.5t65 -97t26 -108q1 -11 1 -22q0 -150 -142 -291l-78 -76q136 -33 227 -135.5t91 -230.5q0 -75 -26 -141t-77 -118.5t-136 -83t-193 -30.5h-713zM217 53l821 805q122 122 122 247q0 11 -1 23q-10 107 -94 180.5t-236 73.5h-612 v-1329zM289 51h588q183 0 281.5 88.5t98.5 233.5q0 127 -84.5 211.5t-222.5 113.5z" />
<glyph unicode="c" horiz-adv-x="1558" d="M143 717q0 106 32 211t96 198.5t150.5 165.5t204 114t248.5 42q158 0 298.5 -63.5t242.5 -176.5l-37 -32q-94 103 -224.5 162t-276.5 59q-140 0 -267 -54.5t-217.5 -146.5t-144 -217.5t-53.5 -261.5t53.5 -261.5t144 -217.5t217.5 -146.5t267 -54.5q146 0 276.5 59 t224.5 162l37 -33q-102 -112 -242.5 -175.5t-298.5 -63.5q-131 0 -248.5 42t-204 114t-150.5 165.5t-96 198.5t-32 211z" />
<glyph unicode="d" horiz-adv-x="1622" d="M164 0v1434h524q156 0 285 -40.5t217.5 -110t150 -162.5t89.5 -195.5t28 -212.5q0 -127 -32.5 -237t-90 -191t-127 -140t-151.5 -96l-37 49q168 74 276.5 234t108.5 381q0 134 -47.5 254.5t-134 213t-220 147t-294.5 54.5h-492v-540l690 -842h-743zM217 51h578l-578 703 v-703z" />
<glyph unicode="e" horiz-adv-x="1452" d="M164 0v1434h1124v-52h-1018l670 -872h-725v-459h1073v-51h-1124zM215 561h621l-621 807v-807z" />
<glyph unicode="f" horiz-adv-x="1421" d="M154 0v1434h1124v-52h-1018l670 -872h-725v-510h-51zM205 561h620l-620 807v-807z" />
<glyph unicode="g" horiz-adv-x="1708" d="M143 717q0 106 32 211t96 198.5t150.5 165.5t204 114t248.5 42q158 0 298.5 -63.5t242.5 -176.5l-37 -32q-94 103 -224.5 162t-276.5 59q-140 0 -267 -54.5t-217.5 -146.5t-144 -217.5t-53.5 -261.5q0 -180 88 -335t242 -248t339 -97q185 3 330 94l-465 637h836v-51 q0 -196 -89.5 -361.5t-248.5 -264.5t-353 -105h-18q-128 3 -242.5 46.5t-199 115.5t-146.5 164.5t-93.5 196t-31.5 208.5zM827 717l408 -559q129 93 203 240t75 319h-686z" />
<glyph unicode="h" horiz-adv-x="1595" d="M164 0v268h51v-268h-51zM164 510v924h51v-873h1217v-561h-52v510h-1216zM1380 805v629h52v-629h-52z" />
<glyph unicode="i" horiz-adv-x="378" d="M164 0v1434h51v-1434h-51z" />
<glyph unicode="j" horiz-adv-x="1306" d="M164 481h51q0 -191 119 -314.5t319 -123.5q182 0 299 104l-434 555h574v732h51v-783h-522l368 -465q103 119 103 295h51q0 -221 -138.5 -355t-351.5 -134q-214 0 -351.5 134t-137.5 355z" />
<glyph unicode="k" horiz-adv-x="1599" d="M164 0v1434h51v-1346l1059 1294h-582v52h686l-608 -746l707 -688h-1313zM250 51h1104l-619 596z" />
<glyph unicode="l" horiz-adv-x="1443" d="M164 0v1434h51v-1383h1065v-51h-1116z" />
<glyph unicode="m" horiz-adv-x="2002" d="M205 0v1434l796 -605l797 605v-1434h-1593zM256 51h1491v1272l-746 -567l-745 567v-1272z" />
<glyph unicode="n" horiz-adv-x="1662" d="M184 0v1434h70l1173 -1375v1375h52v-1434h-1295zM236 51h1130l-1130 1323v-1323z" />
<glyph unicode="o" d="M143 717q0 148 58 283.5t156 233.5t233.5 156t283.5 58t283.5 -58t234 -156t156.5 -233.5t58 -283.5t-58 -283.5t-156.5 -233.5t-234 -156t-283.5 -58t-283.5 58t-233.5 156t-156 233.5t-58 283.5zM195 719q0 -111 34.5 -214.5t97.5 -187.5t146.5 -147.5t188 -98 t215.5 -34.5q138 0 263.5 54t216 145.5t144 218t53.5 264.5t-53.5 263.5t-144 216.5t-216 144.5t-263.5 53.5q-139 0 -265 -53.5t-217.5 -144.5t-145.5 -216.5t-54 -263.5z" />
<glyph unicode="p" horiz-adv-x="1490" d="M154 1434h684q112 0 206.5 -41t155 -107.5t94 -149.5t33.5 -169q0 -88 -30 -169t-87 -146t-148 -103.5t-204 -38.5h-567v-510h-51v561h606zM258 1382l651 -819q165 15 266 130t101 274q0 107 -54.5 202t-154 154t-219.5 59h-590z" />
<glyph unicode="q" d="M143 717q0 148 58 283.5t156 233.5t233.5 156t283.5 58t283.5 -58t234 -156t156.5 -233.5t58 -283.5q0 -193 -93 -358t-251 -263l290 -397h-61l-272 373q-159 -86 -345 -86q-148 0 -283.5 58t-233.5 156t-156 233.5t-58 283.5zM195 719q0 -111 34.5 -214.5t97.5 -187.5 t146.5 -147.5t188 -98t215.5 -34.5q168 0 311 76l-258 354h577q47 118 47 252q0 138 -53.5 263.5t-144 216.5t-216 144.5t-263.5 53.5q-139 0 -265 -53.5t-217.5 -144.5t-145.5 -216.5t-54 -263.5zM1028 416l203 -279q169 105 252 279h-455z" />
<glyph unicode="r" horiz-adv-x="1601" d="M164 0v1434h704q111 0 204 -36t153 -96t93.5 -135.5t33.5 -156.5q0 -278 -324 -424l440 -586h-1304zM215 51h1153l-420 559q179 68 265.5 163t86.5 237q0 153 -121 262.5t-300 109.5h-664v-1331z" />
<glyph unicode="s" horiz-adv-x="1316" d="M154 252h63q43 -101 165 -166.5t269 -65.5q125 0 229 36.5t168 107.5t64 162q0 42 -12 78.5t-31 65t-54 55.5t-69.5 47t-89 43t-101 39.5t-116.5 39.5q-87 28 -147.5 52t-122.5 59t-99 73.5t-60.5 92.5t-23.5 119q0 169 134.5 270.5t330.5 101.5q177 0 310.5 -84.5 t173.5 -242.5h-56q-37 132 -154.5 203t-273.5 71q-189 0 -301 -90t-112 -229q0 -67 28.5 -118.5t89.5 -93t132.5 -72t181.5 -67.5q55 -18 87 -29t81 -29t78 -32t67.5 -35.5t61.5 -41.5t48 -47.5t38.5 -56.5t22.5 -65t9 -77q0 -111 -72 -194.5t-187 -125t-253 -41.5 q-172 0 -311 80.5t-186 206.5z" />
<glyph unicode="t" horiz-adv-x="1554" d="M143 1382v52h660v-1434h-51v1382h-609zM913 1382v52h498v-52h-498z" />
<glyph unicode="u" horiz-adv-x="1572" d="M164 666v768h1245v-768q0 -134 -41 -254.5t-117 -215t-196.5 -149.5t-268.5 -55q-119 0 -221 36t-175 99.5t-124.5 148.5t-76.5 184t-25 206zM215 662q0 -93 21 -181t66.5 -168t111.5 -139.5t161.5 -95t210.5 -35.5t211 35.5t161.5 95t111.5 139.5t67 168t21 181v720 h-1143v-720z" />
<glyph unicode="v" horiz-adv-x="1679" d="M61 1434h60l719 -1328l690 1276h-707l31 52h764l-778 -1434z" />
<glyph unicode="w" horiz-adv-x="2363" d="M61 1434h62l745 -1381l283 514l-469 867h936l-258 -473h-57l229 421h-762l719 -1329l727 1329h-371l31 52h426l-784 -1434h-60l-278 514l-283 -514h-57z" />
<glyph unicode="x" horiz-adv-x="1662" d="M164 0l631 729l-611 705h70l1245 -1434h-72l-598 690l-208 -244l393 -446h-850zM276 51h623l-313 357zM924 852l503 582h72l-541 -621z" />
<glyph unicode="y" horiz-adv-x="1712" d="M133 1434h62l661 -977l627 925h-740l31 52h805l-696 -1033v-401h-52v393z" />
<glyph unicode="z" horiz-adv-x="1796" d="M164 0l1227 1382h-1168v52h1288l-612 -686l733 -748h-1468zM281 51h1228l-645 656z" />
<glyph unicode="{" horiz-adv-x="618" d="M164 719l86 106v813h205v-51h-154v-776l-78 -92l78 -94v-748h154v-51h-205v784z" />
<glyph unicode="}" horiz-adv-x="618" d="M164 -123h153v748l78 94l-78 92v776h-153v51h205v-813l86 -106l-86 -109v-784h-205v51z" />
<glyph unicode="&#xa1;" horiz-adv-x="378" d="M164 -410v1139h51v-1139h-51zM164 971v53h51v-53h-51z" />
<glyph unicode="&#xa2;" horiz-adv-x="1558" d="M143 717q0 106 32 211t96 198.5t150.5 165.5t204 114t248.5 42q135 0 248 -43l17 29h59l-27 -50q137 -60 244 -176l-37 -32q-96 106 -231 165l-645 -1191q166 -113 375 -113q146 0 276.5 59t224.5 162l37 -33q-102 -112 -242.5 -175.5t-298.5 -63.5q-220 0 -399 116 l-55 -102h-58l72 133q-137 104 -214 262t-77 322zM195 717q0 -159 70.5 -300.5t193.5 -236.5l639 1180q-104 37 -221 37q-140 0 -267 -54.5t-217.5 -146.5t-144 -217.5t-53.5 -261.5z" />
<glyph unicode="&#xa3;" horiz-adv-x="1306" d="M164 0v51h866l-377 352h-489v52h436q-90 84 -139.5 132.5t-106.5 111.5t-84.5 108t-46 97t-18.5 104q0 80 27 154t79.5 136t141 99t200.5 37q113 0 207.5 -40.5t155 -106.5t94 -149t33.5 -171q0 -84 -18.5 -144.5t-59.5 -115.5l-653 608q-75 -52 -115.5 -133t-40.5 -174 q0 -27 6.5 -54t13.5 -50t27 -54t33 -51t46 -56t50.5 -55t62 -62t65.5 -63t75 -71l39 -37h440v-52h-385l373 -352v-51h-938zM457 1341l598 -557q37 64 37 183q0 168 -122.5 291.5t-305.5 123.5h-21q-106 0 -186 -41z" />
<glyph unicode="&#xa4;" horiz-adv-x="1228" />
<glyph unicode="&#xa5;" horiz-adv-x="2007" d="M164 162v51h815v180l-12 19h-803v51h768l-651 971h61l657 -971h9l622 919h-739l31 52h804l-655 -971h772v-51h-807l-6 -11v-188h813v-51h-813v-162h-51v162h-815z" />
<glyph unicode="&#xa8;" horiz-adv-x="929" d="M164 1434v53h51v-53h-51zM715 1434v53h51v-53h-51z" />
<glyph unicode="&#xab;" horiz-adv-x="1658" d="M164 721l856 469v-62l-748 -407l748 -410v-61zM639 721l856 469v-62l-747 -407l747 -410v-61z" />
<glyph unicode="&#xad;" horiz-adv-x="1089" d="M164 522v51h762v-51h-762z" />
<glyph unicode="&#xaf;" horiz-adv-x="1077" d="M164 1382v52h749v-52h-749z" />
<glyph unicode="&#xb4;" horiz-adv-x="634" d="M178 1262l232 376h63l-233 -376h-62z" />
<glyph unicode="&#xb7;" horiz-adv-x="378" d="M164 520v53h51v-53h-51z" />
<glyph unicode="&#xb8;" horiz-adv-x="1013" d="M182 -410l33 54h354q51 0 92 12t65 31t41.5 43t22.5 48t8.5 46t-1.5 37h-488l80 139h64l-50 -86h422q12 -6 18 -22.5t6.5 -26.5t0.5 -35q0 -106 -75 -173t-228 -67h-365z" />
<glyph unicode="&#xbb;" horiz-adv-x="1658" d="M164 250v61l747 410l-747 407v62l856 -469zM639 250v61l747 410l-747 407v62l856 -469z" />
<glyph unicode="&#xbf;" horiz-adv-x="1153" d="M164 57q0 88 30 169t87 146t148 103.5t204 38.5h239v334h52v-385h-301q-139 0 -246 -76l633 -797h-357q-112 0 -206.5 41t-155 107.5t-94 149.5t-33.5 169zM215 57q0 -107 54.5 -202t154 -154t219.5 -59h262l-567 712q-123 -120 -123 -297zM872 973v51h52v-51h-52z" />
<glyph unicode="&#xc0;" horiz-adv-x="1742" d="M82 0l790 1434l789 -1434h-1579zM172 51h1401l-701 1276zM594 2048h63l232 -377h-62z" />
<glyph unicode="&#xc1;" horiz-adv-x="1742" d="M82 0l790 1434l789 -1434h-1579zM172 51h1401l-701 1276zM842 1671l231 377h64l-234 -377h-61z" />
<glyph unicode="&#xc2;" horiz-adv-x="1742" d="M82 0l790 1434l789 -1434h-1579zM172 51h1401l-701 1276zM647 1671l225 410l226 -410h-56l-170 309l-170 -309h-55z" />
<glyph unicode="&#xc3;" horiz-adv-x="1742" d="M82 0l790 1434l789 -1434h-1579zM172 51h1401l-701 1276zM385 1790v57l322 156l321 -156l322 156v-57l-322 -156l-321 156z" />
<glyph unicode="&#xc4;" horiz-adv-x="1742" d="M82 0l790 1434l789 -1434h-1579zM172 51h1401l-701 1276zM557 1843v53h51v-53h-51zM1108 1843v53h51v-53h-51z" />
<glyph unicode="&#xc5;" horiz-adv-x="1742" d="M82 0l790 1434l789 -1434h-1579zM172 51h1401l-701 1276zM637 1847q0 97 68.5 165.5t166.5 68.5q97 0 165.5 -68.5t68.5 -165.5q0 -98 -68.5 -166.5t-165.5 -68.5q-98 0 -166.5 68.5t-68.5 166.5zM690 1845q0 -75 53 -127.5t129 -52.5q75 0 128 52.5t53 127.5 q0 76 -53 129.5t-128 53.5q-76 0 -129 -53t-53 -130z" />
<glyph unicode="&#xc6;" horiz-adv-x="2246" d="M164 0l852 1434h1067v-52h-1036l788 -1331h248v-51h-1919zM254 51h737v1235zM1042 51h736l-275 459h-461v-459zM1042 561h431l-431 721v-721z" />
<glyph unicode="&#xc7;" horiz-adv-x="1558" d="M143 717q0 106 32 211t96 198.5t150.5 165.5t204 114t248.5 42q158 0 298.5 -63.5t242.5 -176.5l-37 -32q-94 103 -224.5 162t-276.5 59q-140 0 -267 -54.5t-217.5 -146.5t-144 -217.5t-53.5 -261.5t53.5 -261.5t144 -217.5t217.5 -146.5t267 -54.5q146 0 276.5 59 t224.5 162l37 -33q-102 -112 -242.5 -175.5t-298.5 -63.5q-25 0 -71 4l-43 -76h422q4 -2 7.5 -5t6 -7t4.5 -8t3 -10t2 -10t1 -11.5v-10.5v-11.5v-10.5q0 -106 -75 -173t-228 -67h-364l32 54h355q44 0 80.5 9t60 23.5t42 33.5t27 40t14.5 41.5t5 38.5t-2 31h-487l77 135 q-136 24 -250.5 95.5t-190 171t-117.5 217.5t-42 237z" />
<glyph unicode="&#xc8;" horiz-adv-x="1452" d="M164 0v1434h1124v-52h-1018l670 -872h-725v-459h1073v-51h-1124zM215 561h621l-621 807v-807zM449 2048h63l231 -377h-61z" />
<glyph unicode="&#xc9;" horiz-adv-x="1452" d="M164 0v1434h1124v-52h-1018l670 -872h-725v-459h1073v-51h-1124zM215 561h621l-621 807v-807zM696 1671l232 377h63l-233 -377h-62z" />
<glyph unicode="&#xca;" horiz-adv-x="1452" d="M164 0v1434h1124v-52h-1018l670 -872h-725v-459h1073v-51h-1124zM215 561h621l-621 807v-807zM502 1671l225 410l225 -410h-55l-170 309l-170 -309h-55z" />
<glyph unicode="&#xcb;" horiz-adv-x="1452" d="M164 0v1434h1124v-52h-1018l670 -872h-725v-459h1073v-51h-1124zM215 561h621l-621 807v-807zM412 1843v53h51v-53h-51zM963 1843v53h51v-53h-51z" />
<glyph unicode="&#xcc;" horiz-adv-x="378" d="M-88 2048h63l232 -377h-62zM164 0v1434h51v-1434h-51z" />
<glyph unicode="&#xcd;" horiz-adv-x="378" d="M160 1671l231 377h64l-234 -377h-61zM164 0v1434h51v-1434h-51z" />
<glyph unicode="&#xce;" horiz-adv-x="378" d="M-35 1671l225 410l226 -410h-56l-170 309l-170 -309h-55zM164 0v1434h51v-1434h-51z" />
<glyph unicode="&#xcf;" horiz-adv-x="378" d="M-125 1843v53h51v-53h-51zM164 0v1434h51v-1434h-51zM426 1843v53h51v-53h-51z" />
<glyph unicode="&#xd0;" horiz-adv-x="1622" d="M164 0v1434h524q156 0 285 -40.5t217.5 -110t150 -162.5t89.5 -195.5t28 -212.5q0 -127 -32.5 -237t-90 -191t-127 -140t-151.5 -96l-37 49q168 74 276.5 234t108.5 381q0 134 -47.5 254.5t-134 213t-220 147t-294.5 54.5h-492v-540l358 -436h351v-52h-310l291 -354h-743 zM217 51h578l-250 303h-328v-303zM217 406h287l-287 348v-348z" />
<glyph unicode="&#xd1;" horiz-adv-x="1662" d="M184 0v1434h70l1173 -1375v1375h52v-1434h-1295zM236 51h1130l-1130 1323v-1323zM344 1790v57l322 156l321 -156l322 156v-57l-322 -156l-321 156z" />
<glyph unicode="&#xd2;" d="M143 717q0 148 58 283.5t156 233.5t233.5 156t283.5 58t283.5 -58t234 -156t156.5 -233.5t58 -283.5t-58 -283.5t-156.5 -233.5t-234 -156t-283.5 -58t-283.5 58t-233.5 156t-156 233.5t-58 283.5zM195 719q0 -111 34.5 -214.5t97.5 -187.5t146.5 -147.5t188 -98 t215.5 -34.5q138 0 263.5 54t216 145.5t144 218t53.5 264.5t-53.5 263.5t-144 216.5t-216 144.5t-263.5 53.5q-139 0 -265 -53.5t-217.5 -144.5t-145.5 -216.5t-54 -263.5zM596 2048h63l232 -377h-62z" />
<glyph unicode="&#xd3;" d="M143 717q0 148 58 283.5t156 233.5t233.5 156t283.5 58t283.5 -58t234 -156t156.5 -233.5t58 -283.5t-58 -283.5t-156.5 -233.5t-234 -156t-283.5 -58t-283.5 58t-233.5 156t-156 233.5t-58 283.5zM195 719q0 -111 34.5 -214.5t97.5 -187.5t146.5 -147.5t188 -98 t215.5 -34.5q138 0 263.5 54t216 145.5t144 218t53.5 264.5t-53.5 263.5t-144 216.5t-216 144.5t-263.5 53.5q-139 0 -265 -53.5t-217.5 -144.5t-145.5 -216.5t-54 -263.5zM844 1671l231 377h64l-234 -377h-61z" />
<glyph unicode="&#xd4;" d="M143 717q0 148 58 283.5t156 233.5t233.5 156t283.5 58t283.5 -58t234 -156t156.5 -233.5t58 -283.5t-58 -283.5t-156.5 -233.5t-234 -156t-283.5 -58t-283.5 58t-233.5 156t-156 233.5t-58 283.5zM195 719q0 -111 34.5 -214.5t97.5 -187.5t146.5 -147.5t188 -98 t215.5 -34.5q138 0 263.5 54t216 145.5t144 218t53.5 264.5t-53.5 263.5t-144 216.5t-216 144.5t-263.5 53.5q-139 0 -265 -53.5t-217.5 -144.5t-145.5 -216.5t-54 -263.5zM649 1671l225 410l226 -410h-56l-170 309l-169 -309h-56z" />
<glyph unicode="&#xd5;" d="M143 717q0 148 58 283.5t156 233.5t233.5 156t283.5 58t283.5 -58t234 -156t156.5 -233.5t58 -283.5t-58 -283.5t-156.5 -233.5t-234 -156t-283.5 -58t-283.5 58t-233.5 156t-156 233.5t-58 283.5zM195 719q0 -111 34.5 -214.5t97.5 -187.5t146.5 -147.5t188 -98 t215.5 -34.5q138 0 263.5 54t216 145.5t144 218t53.5 264.5t-53.5 263.5t-144 216.5t-216 144.5t-263.5 53.5q-139 0 -265 -53.5t-217.5 -144.5t-145.5 -216.5t-54 -263.5zM387 1790v57l322 156l321 -156l322 156v-57l-322 -156l-321 156z" />
<glyph unicode="&#xd6;" d="M143 717q0 148 58 283.5t156 233.5t233.5 156t283.5 58t283.5 -58t234 -156t156.5 -233.5t58 -283.5t-58 -283.5t-156.5 -233.5t-234 -156t-283.5 -58t-283.5 58t-233.5 156t-156 233.5t-58 283.5zM195 719q0 -111 34.5 -214.5t97.5 -187.5t146.5 -147.5t188 -98 t215.5 -34.5q138 0 263.5 54t216 145.5t144 218t53.5 264.5t-53.5 263.5t-144 216.5t-216 144.5t-263.5 53.5q-139 0 -265 -53.5t-217.5 -144.5t-145.5 -216.5t-54 -263.5zM559 1843v53h51v-53h-51zM1110 1843v53h51v-53h-51z" />
<glyph unicode="&#xd7;" horiz-adv-x="901" d="M164 297l252 252l-252 250l35 37l252 -252l251 252l35 -37l-250 -250l250 -252l-35 -37l-251 252l-252 -252z" />
<glyph unicode="&#xd8;" d="M143 717q0 148 58 283.5t156 233.5t233.5 156t283.5 58q174 0 326 -76l33 62h59l-47 -86q164 -97 262.5 -265t98.5 -366q0 -148 -58 -283.5t-156.5 -233.5t-234 -156t-283.5 -58q-171 0 -325 77l-35 -63h-57l47 86q-164 97 -262.5 265t-98.5 366zM195 719q0 -184 90 -340 t243 -246l648 1194q-140 70 -299 70q-139 0 -265 -53.5t-217.5 -144.5t-145.5 -216.5t-54 -263.5zM573 109q147 -72 304 -72q138 0 263.5 54t216 145.5t144 218t53.5 264.5q0 185 -89.5 340t-241.5 244z" />
<glyph unicode="&#xd9;" horiz-adv-x="1572" d="M164 666v768h1245v-768q0 -134 -41 -254.5t-117 -215t-196.5 -149.5t-268.5 -55q-119 0 -221 36t-175 99.5t-124.5 148.5t-76.5 184t-25 206zM215 662q0 -93 21 -181t66.5 -168t111.5 -139.5t161.5 -95t210.5 -35.5t211 35.5t161.5 95t111.5 139.5t67 168t21 181v720 h-1143v-720zM508 2048h63l232 -377h-62z" />
<glyph unicode="&#xda;" horiz-adv-x="1572" d="M164 666v768h1245v-768q0 -134 -41 -254.5t-117 -215t-196.5 -149.5t-268.5 -55q-119 0 -221 36t-175 99.5t-124.5 148.5t-76.5 184t-25 206zM215 662q0 -93 21 -181t66.5 -168t111.5 -139.5t161.5 -95t210.5 -35.5t211 35.5t161.5 95t111.5 139.5t67 168t21 181v720 h-1143v-720zM756 1671l231 377h64l-234 -377h-61z" />
<glyph unicode="&#xdb;" horiz-adv-x="1572" d="M164 666v768h1245v-768q0 -134 -41 -254.5t-117 -215t-196.5 -149.5t-268.5 -55q-119 0 -221 36t-175 99.5t-124.5 148.5t-76.5 184t-25 206zM215 662q0 -93 21 -181t66.5 -168t111.5 -139.5t161.5 -95t210.5 -35.5t211 35.5t161.5 95t111.5 139.5t67 168t21 181v720 h-1143v-720zM561 1671l225 410l226 -410h-56l-170 309l-170 -309h-55z" />
<glyph unicode="&#xdc;" horiz-adv-x="1572" d="M164 666v768h1245v-768q0 -134 -41 -254.5t-117 -215t-196.5 -149.5t-268.5 -55q-119 0 -221 36t-175 99.5t-124.5 148.5t-76.5 184t-25 206zM215 662q0 -93 21 -181t66.5 -168t111.5 -139.5t161.5 -95t210.5 -35.5t211 35.5t161.5 95t111.5 139.5t67 168t21 181v720 h-1143v-720zM471 1843v53h51v-53h-51zM1022 1843v53h51v-53h-51z" />
<glyph unicode="&#xdd;" horiz-adv-x="1712" d="M133 1434h62l661 -977l627 925h-740l31 52h805l-696 -1033v-401h-52v393zM825 1671l232 377h63l-233 -377h-62z" />
<glyph unicode="&#xde;" horiz-adv-x="1415" d="M164 0v274h629q11 0 61 5l-690 868v287h51v-287h547q112 0 206.5 -41t155 -107.5t94 -149.5t33.5 -169q0 -88 -30 -169t-87 -146t-148 -103.5t-204 -38.5h-567v-223h-51zM268 1096l641 -807q133 36 212 144.5t79 246.5q0 166 -123.5 291t-304.5 125h-504z" />
<glyph unicode="&#xdf;" horiz-adv-x="1472" d="M164 0v1067q0 160 92 263.5t258 103.5h324q92 0 165.5 -28t117 -73.5t66.5 -98.5t23 -106q0 -59 -12.5 -109t-37 -89.5t-43.5 -62.5t-48 -52l-78 -76q136 -34 227 -136.5t91 -229.5q0 -75 -26 -141t-77 -118.5t-136 -83t-193 -30.5h-461v51h461q183 0 281.5 88.5 t98.5 233.5q0 133 -88.5 213t-275.5 131l145 141q60 60 90.5 118.5t30.5 151.5q0 100 -89.5 177t-229.5 77h-326q-136 0 -216.5 -88.5t-80.5 -226.5v-1067h-53z" />
<glyph unicode="&#xe0;" horiz-adv-x="1742" d="M82 0l790 1434l789 -1434h-1579zM172 51h1401l-701 1276zM594 2048h63l232 -377h-62z" />
<glyph unicode="&#xe1;" horiz-adv-x="1742" d="M82 0l790 1434l789 -1434h-1579zM172 51h1401l-701 1276zM842 1671l231 377h64l-234 -377h-61z" />
<glyph unicode="&#xe2;" horiz-adv-x="1742" d="M82 0l790 1434l789 -1434h-1579zM172 51h1401l-701 1276zM647 1671l225 410l226 -410h-56l-170 309l-170 -309h-55z" />
<glyph unicode="&#xe3;" horiz-adv-x="1742" d="M82 0l790 1434l789 -1434h-1579zM172 51h1401l-701 1276zM385 1790v57l322 156l321 -156l322 156v-57l-322 -156l-321 156z" />
<glyph unicode="&#xe4;" horiz-adv-x="1742" d="M82 0l790 1434l789 -1434h-1579zM172 51h1401l-701 1276zM557 1843v53h51v-53h-51zM1108 1843v53h51v-53h-51z" />
<glyph unicode="&#xe5;" horiz-adv-x="1742" d="M82 0l790 1434l789 -1434h-1579zM172 51h1401l-701 1276zM637 1847q0 97 68.5 165.5t166.5 68.5q97 0 165.5 -68.5t68.5 -165.5q0 -98 -68.5 -166.5t-165.5 -68.5q-98 0 -166.5 68.5t-68.5 166.5zM690 1845q0 -75 53 -127.5t129 -52.5q75 0 128 52.5t53 127.5 q0 76 -53 129.5t-128 53.5q-76 0 -129 -53t-53 -130z" />
<glyph unicode="&#xe6;" horiz-adv-x="2246" d="M164 0l852 1434h1067v-52h-1036l788 -1331h248v-51h-1919zM254 51h737v1235zM1042 51h736l-275 459h-461v-459zM1042 561h431l-431 721v-721z" />
<glyph unicode="&#xe7;" horiz-adv-x="1558" d="M143 717q0 106 32 211t96 198.5t150.5 165.5t204 114t248.5 42q158 0 298.5 -63.5t242.5 -176.5l-37 -32q-94 103 -224.5 162t-276.5 59q-140 0 -267 -54.5t-217.5 -146.5t-144 -217.5t-53.5 -261.5t53.5 -261.5t144 -217.5t217.5 -146.5t267 -54.5q146 0 276.5 59 t224.5 162l37 -33q-102 -112 -242.5 -175.5t-298.5 -63.5q-25 0 -71 4l-43 -76h422q4 -2 7.5 -5t6 -7t4.5 -8t3 -10t2 -10t1 -11.5v-10.5v-11.5v-10.5q0 -106 -75 -173t-228 -67h-364l32 54h355q44 0 80.5 9t60 23.5t42 33.5t27 40t14.5 41.5t5 38.5t-2 31h-487l77 135 q-136 24 -250.5 95.5t-190 171t-117.5 217.5t-42 237z" />
<glyph unicode="&#xe8;" horiz-adv-x="1452" d="M164 0v1434h1124v-52h-1018l670 -872h-725v-459h1073v-51h-1124zM215 561h621l-621 807v-807zM449 2048h63l231 -377h-61z" />
<glyph unicode="&#xe9;" horiz-adv-x="1452" d="M164 0v1434h1124v-52h-1018l670 -872h-725v-459h1073v-51h-1124zM215 561h621l-621 807v-807zM696 1671l232 377h63l-233 -377h-62z" />
<glyph unicode="&#xea;" horiz-adv-x="1452" d="M164 0v1434h1124v-52h-1018l670 -872h-725v-459h1073v-51h-1124zM215 561h621l-621 807v-807zM502 1671l225 410l225 -410h-55l-170 309l-170 -309h-55z" />
<glyph unicode="&#xeb;" horiz-adv-x="1452" d="M164 0v1434h1124v-52h-1018l670 -872h-725v-459h1073v-51h-1124zM215 561h621l-621 807v-807zM412 1843v53h51v-53h-51zM963 1843v53h51v-53h-51z" />
<glyph unicode="&#xec;" horiz-adv-x="378" d="M-88 2048h63l232 -377h-62zM164 0v1434h51v-1434h-51z" />
<glyph unicode="&#xed;" horiz-adv-x="378" d="M160 1671l231 377h64l-234 -377h-61zM164 0v1434h51v-1434h-51z" />
<glyph unicode="&#xee;" horiz-adv-x="378" d="M-35 1671l225 410l226 -410h-56l-170 309l-170 -309h-55zM164 0v1434h51v-1434h-51z" />
<glyph unicode="&#xef;" horiz-adv-x="378" d="M-125 1843v53h51v-53h-51zM164 0v1434h51v-1434h-51zM426 1843v53h51v-53h-51z" />
<glyph unicode="&#xf0;" horiz-adv-x="1622" d="M164 0v1434h524q156 0 285 -40.5t217.5 -110t150 -162.5t89.5 -195.5t28 -212.5q0 -127 -32.5 -237t-90 -191t-127 -140t-151.5 -96l-37 49q168 74 276.5 234t108.5 381q0 134 -47.5 254.5t-134 213t-220 147t-294.5 54.5h-492v-540l358 -436h351v-52h-310l291 -354h-743 zM217 51h578l-250 303h-328v-303zM217 406h287l-287 348v-348z" />
<glyph unicode="&#xf1;" horiz-adv-x="1662" d="M184 0v1434h70l1173 -1375v1375h52v-1434h-1295zM236 51h1130l-1130 1323v-1323zM344 1790v57l322 156l321 -156l322 156v-57l-322 -156l-321 156z" />
<glyph unicode="&#xf2;" d="M143 717q0 148 58 283.5t156 233.5t233.5 156t283.5 58t283.5 -58t234 -156t156.5 -233.5t58 -283.5t-58 -283.5t-156.5 -233.5t-234 -156t-283.5 -58t-283.5 58t-233.5 156t-156 233.5t-58 283.5zM195 719q0 -111 34.5 -214.5t97.5 -187.5t146.5 -147.5t188 -98 t215.5 -34.5q138 0 263.5 54t216 145.5t144 218t53.5 264.5t-53.5 263.5t-144 216.5t-216 144.5t-263.5 53.5q-139 0 -265 -53.5t-217.5 -144.5t-145.5 -216.5t-54 -263.5zM596 2048h63l232 -377h-62z" />
<glyph unicode="&#xf3;" d="M143 717q0 148 58 283.5t156 233.5t233.5 156t283.5 58t283.5 -58t234 -156t156.5 -233.5t58 -283.5t-58 -283.5t-156.5 -233.5t-234 -156t-283.5 -58t-283.5 58t-233.5 156t-156 233.5t-58 283.5zM195 719q0 -111 34.5 -214.5t97.5 -187.5t146.5 -147.5t188 -98 t215.5 -34.5q138 0 263.5 54t216 145.5t144 218t53.5 264.5t-53.5 263.5t-144 216.5t-216 144.5t-263.5 53.5q-139 0 -265 -53.5t-217.5 -144.5t-145.5 -216.5t-54 -263.5zM844 1671l231 377h64l-234 -377h-61z" />
<glyph unicode="&#xf4;" d="M143 717q0 148 58 283.5t156 233.5t233.5 156t283.5 58t283.5 -58t234 -156t156.5 -233.5t58 -283.5t-58 -283.5t-156.5 -233.5t-234 -156t-283.5 -58t-283.5 58t-233.5 156t-156 233.5t-58 283.5zM195 719q0 -111 34.5 -214.5t97.5 -187.5t146.5 -147.5t188 -98 t215.5 -34.5q138 0 263.5 54t216 145.5t144 218t53.5 264.5t-53.5 263.5t-144 216.5t-216 144.5t-263.5 53.5q-139 0 -265 -53.5t-217.5 -144.5t-145.5 -216.5t-54 -263.5zM649 1671l225 410l226 -410h-56l-170 309l-169 -309h-56z" />
<glyph unicode="&#xf5;" d="M143 717q0 148 58 283.5t156 233.5t233.5 156t283.5 58t283.5 -58t234 -156t156.5 -233.5t58 -283.5t-58 -283.5t-156.5 -233.5t-234 -156t-283.5 -58t-283.5 58t-233.5 156t-156 233.5t-58 283.5zM195 719q0 -111 34.5 -214.5t97.5 -187.5t146.5 -147.5t188 -98 t215.5 -34.5q138 0 263.5 54t216 145.5t144 218t53.5 264.5t-53.5 263.5t-144 216.5t-216 144.5t-263.5 53.5q-139 0 -265 -53.5t-217.5 -144.5t-145.5 -216.5t-54 -263.5zM387 1790v57l322 156l321 -156l322 156v-57l-322 -156l-321 156z" />
<glyph unicode="&#xf6;" d="M143 717q0 148 58 283.5t156 233.5t233.5 156t283.5 58t283.5 -58t234 -156t156.5 -233.5t58 -283.5t-58 -283.5t-156.5 -233.5t-234 -156t-283.5 -58t-283.5 58t-233.5 156t-156 233.5t-58 283.5zM195 719q0 -111 34.5 -214.5t97.5 -187.5t146.5 -147.5t188 -98 t215.5 -34.5q138 0 263.5 54t216 145.5t144 218t53.5 264.5t-53.5 263.5t-144 216.5t-216 144.5t-263.5 53.5q-139 0 -265 -53.5t-217.5 -144.5t-145.5 -216.5t-54 -263.5zM559 1843v53h51v-53h-51zM1110 1843v53h51v-53h-51z" />
<glyph unicode="&#xf8;" d="M143 717q0 148 58 283.5t156 233.5t233.5 156t283.5 58q150 0 293 -62l25 48h59l-37 -70q177 -94 284.5 -267t107.5 -380q0 -148 -58 -283.5t-156.5 -233.5t-234 -156t-283.5 -58q-189 0 -358 94l-43 -80h-57l57 106q-152 100 -241 261t-89 350zM195 719 q0 -174 82 -323.5t221 -243.5l645 1191q-127 54 -266 54t-265 -53.5t-217.5 -144.5t-145.5 -216.5t-54 -263.5zM541 125q157 -88 336 -88q138 0 263.5 54t216 145.5t144 218t53.5 264.5q0 194 -99.5 355t-264.5 247z" />
<glyph unicode="&#xf9;" horiz-adv-x="1572" d="M164 666v768h1245v-768q0 -134 -41 -254.5t-117 -215t-196.5 -149.5t-268.5 -55q-119 0 -221 36t-175 99.5t-124.5 148.5t-76.5 184t-25 206zM215 662q0 -93 21 -181t66.5 -168t111.5 -139.5t161.5 -95t210.5 -35.5t211 35.5t161.5 95t111.5 139.5t67 168t21 181v720 h-1143v-720zM508 2048h63l232 -377h-62z" />
<glyph unicode="&#xfa;" horiz-adv-x="1572" d="M164 666v768h1245v-768q0 -134 -41 -254.5t-117 -215t-196.5 -149.5t-268.5 -55q-119 0 -221 36t-175 99.5t-124.5 148.5t-76.5 184t-25 206zM215 662q0 -93 21 -181t66.5 -168t111.5 -139.5t161.5 -95t210.5 -35.5t211 35.5t161.5 95t111.5 139.5t67 168t21 181v720 h-1143v-720zM756 1671l231 377h64l-234 -377h-61z" />
<glyph unicode="&#xfb;" horiz-adv-x="1572" d="M164 666v768h1245v-768q0 -134 -41 -254.5t-117 -215t-196.5 -149.5t-268.5 -55q-119 0 -221 36t-175 99.5t-124.5 148.5t-76.5 184t-25 206zM215 662q0 -93 21 -181t66.5 -168t111.5 -139.5t161.5 -95t210.5 -35.5t211 35.5t161.5 95t111.5 139.5t67 168t21 181v720 h-1143v-720zM561 1671l225 410l226 -410h-56l-170 309l-170 -309h-55z" />
<glyph unicode="&#xfc;" horiz-adv-x="1572" d="M164 666v768h1245v-768q0 -134 -41 -254.5t-117 -215t-196.5 -149.5t-268.5 -55q-119 0 -221 36t-175 99.5t-124.5 148.5t-76.5 184t-25 206zM215 662q0 -93 21 -181t66.5 -168t111.5 -139.5t161.5 -95t210.5 -35.5t211 35.5t161.5 95t111.5 139.5t67 168t21 181v720 h-1143v-720zM471 1843v53h51v-53h-51zM1022 1843v53h51v-53h-51z" />
<glyph unicode="&#xfd;" horiz-adv-x="1712" d="M133 1434h62l661 -977l627 925h-740l31 52h805l-696 -1033v-401h-52v393zM825 1671l232 377h63l-233 -377h-62z" />
<glyph unicode="&#xfe;" horiz-adv-x="1415" d="M164 0v274h629q11 0 61 5l-690 868v287h51v-287h547q112 0 206.5 -41t155 -107.5t94 -149.5t33.5 -169q0 -88 -30 -169t-87 -146t-148 -103.5t-204 -38.5h-567v-223h-51zM268 1096l641 -807q133 36 212 144.5t79 246.5q0 166 -123.5 291t-304.5 125h-504z" />
<glyph unicode="&#xff;" horiz-adv-x="1712" d="M133 1434h62l661 -977l627 925h-740l31 52h805l-696 -1033v-401h-52v393zM541 1843v53h51v-53h-51zM1092 1843v53h51v-53h-51z" />
<glyph unicode="&#x152;" horiz-adv-x="2138" d="M158 717q0 190 92 353t251.5 260.5t348.5 103.5h1124v-52h-835q201 -81 325.5 -261.5t124.5 -403.5q0 -79 -14 -142l51 -65h-67q-46 -157 -157 -278t-263 -181h835v-51h-1124q-189 6 -348.5 103.5t-251.5 260.5t-92 353zM207 719q0 -176 86 -327.5t234 -242.5t323 -98 v1331q-175 -6 -323 -96t-234 -240.5t-86 -326.5zM901 51q211 9 376 136t230 323h-606v-459zM901 561h621l-621 807v-807zM961 1376l573 -747q6 47 6 90q0 252 -166 439t-413 218z" />
<glyph unicode="&#x153;" horiz-adv-x="2138" d="M158 717q0 190 92 353t251.5 260.5t348.5 103.5h1124v-52h-835q201 -81 325.5 -261.5t124.5 -403.5q0 -79 -14 -142l51 -65h-67q-46 -157 -157 -278t-263 -181h835v-51h-1124q-189 6 -348.5 103.5t-251.5 260.5t-92 353zM207 719q0 -176 86 -327.5t234 -242.5t323 -98 v1331q-175 -6 -323 -96t-234 -240.5t-86 -326.5zM901 51q211 9 376 136t230 323h-606v-459zM901 561h621l-621 807v-807zM961 1376l573 -747q6 47 6 90q0 252 -166 439t-413 218z" />
<glyph unicode="&#x178;" horiz-adv-x="1712" d="M133 1434h62l661 -977l627 925h-740l31 52h805l-696 -1033v-401h-52v393zM541 1843v53h51v-53h-51zM1092 1843v53h51v-53h-51z" />
<glyph unicode="&#x2c6;" horiz-adv-x="778" d="M164 1262l225 409l225 -409h-55l-170 309l-170 -309h-55z" />
<glyph unicode="&#x2dc;" horiz-adv-x="1292" d="M164 1380v58l321 155l322 -155l321 155v-57l-321 -156l-322 156z" />
<glyph unicode="&#x2000;" horiz-adv-x="1040" />
<glyph unicode="&#x2001;" horiz-adv-x="2081" />
<glyph unicode="&#x2002;" horiz-adv-x="1040" />
<glyph unicode="&#x2003;" horiz-adv-x="2081" />
<glyph unicode="&#x2004;" horiz-adv-x="693" />
<glyph unicode="&#x2005;" horiz-adv-x="520" />
<glyph unicode="&#x2006;" horiz-adv-x="346" />
<glyph unicode="&#x2007;" horiz-adv-x="346" />
<glyph unicode="&#x2008;" horiz-adv-x="260" />
<glyph unicode="&#x2009;" horiz-adv-x="416" />
<glyph unicode="&#x200a;" horiz-adv-x="115" />
<glyph unicode="&#x2010;" horiz-adv-x="1089" d="M164 522v51h762v-51h-762z" />
<glyph unicode="&#x2011;" horiz-adv-x="1089" d="M164 522v51h762v-51h-762z" />
<glyph unicode="&#x2012;" horiz-adv-x="1089" d="M164 522v51h762v-51h-762z" />
<glyph unicode="&#x2013;" horiz-adv-x="1427" d="M164 522v51h1100v-51h-1100z" />
<glyph unicode="&#x2014;" horiz-adv-x="1468" d="M164 522v51h1141v-51h-1141z" />
<glyph unicode="&#x2018;" horiz-adv-x="512" d="M164 909l153 525h56l-140 -473h156v-52h-225z" />
<glyph unicode="&#x2019;" horiz-adv-x="512" d="M123 1382v52h225l-153 -525h-56l140 473h-156z" />
<glyph unicode="&#x201c;" horiz-adv-x="944" d="M164 909l153 525h56l-140 -473h156v-52h-225zM555 909l154 525h55l-139 -473h155v-52h-225z" />
<glyph unicode="&#x201d;" horiz-adv-x="944" d="M164 1382v52h225l-153 -525h-56l139 473h-155zM555 1382v52h225l-153 -525h-56l140 473h-156z" />
<glyph unicode="&#x2022;" horiz-adv-x="503" d="M164 690q0 35 25.5 60.5t62.5 25.5t62.5 -25.5t25.5 -60.5q0 -37 -25.5 -62.5t-62.5 -25.5t-62.5 25.5t-25.5 62.5z" />
<glyph unicode="&#x2026;" horiz-adv-x="1083" d="M164 0v53h51v-53h-51zM516 0v53h51v-53h-51zM868 0v53h52v-53h-52z" />
<glyph unicode="&#x202f;" horiz-adv-x="416" />
<glyph unicode="&#x2039;" horiz-adv-x="1183" d="M164 721l856 469v-62l-748 -407l748 -410v-61z" />
<glyph unicode="&#x203a;" horiz-adv-x="1183" d="M164 250v61l747 410l-747 407v62l856 -469z" />
<glyph unicode="&#x205f;" horiz-adv-x="520" />
<glyph unicode="&#x20ac;" horiz-adv-x="2007" d="M164 590v51h309q-4 50 -4 76t4 76h-309v51h317q22 118 81.5 225.5t149.5 192.5t217 135.5t271 50.5q158 0 298.5 -63.5t242.5 -176.5l-37 -32q-94 103 -225 162t-277 59q-249 0 -437 -158.5t-233 -394.5h1311v-51h-1319q-4 -50 -4 -76t4 -76h1319v-51h-1311 q45 -236 233 -394.5t437 -158.5q146 0 277 59t225 162l37 -33q-102 -112 -242.5 -175.5t-298.5 -63.5q-144 0 -271 50.5t-217 135.5t-149.5 192.5t-81.5 225.5h-317z" />
<glyph unicode="&#x25fc;" horiz-adv-x="1433" d="M0 0v1434h1434v-1434h-1434z" />
</font>
</defs>
</svg>
